<?xml version="1.0" encoding="UTF-8"?>
<svg version="1.1" xmlns="http://www.w3.org/2000/svg" width="500" height="500">
<path d="M0 0 C5.15721957 4.49903434 10.11562481 9.20771701 15 14 C15.60593994 14.59272705 16.21187988 15.1854541 16.83618164 15.79614258 C54.89052572 53.38287618 74.74837487 107.7347141 75.3125 160.625 C75.13626684 201.12625765 63.66682287 242.2336635 41 276 C40.62794434 276.55461914 40.25588867 277.10923828 39.87255859 277.68066406 C27.52298798 295.92493192 12.55780665 312.63294556 -5 326 C-6.03253906 326.78761719 -7.06507813 327.57523437 -8.12890625 328.38671875 C-52.71664026 361.6338023 -109.48247524 376.21174948 -164.62304688 368.48095703 C-175.28597505 366.79272225 -185.67061109 364.10839798 -196 361 C-196.8569043 360.74234863 -197.71380859 360.48469727 -198.59667969 360.21923828 C-218.91807994 353.94802739 -237.60190178 344.16191296 -255 332 C-256.07507813 331.25105469 -257.15015625 330.50210937 -258.2578125 329.73046875 C-266.06723984 324.07220221 -273.05910365 317.66808233 -280 311 C-280.7739209 310.26692627 -280.7739209 310.26692627 -281.56347656 309.51904297 C-318.71361883 274.24409836 -341.05650729 222.94449908 -343.1262207 171.88623047 C-344.4953652 114.17352997 -326.10050654 59.23145133 -286 17 C-285.52868652 16.50145508 -285.05737305 16.00291016 -284.57177734 15.48925781 C-276.64028846 7.15498811 -268.26518085 -0.18509287 -259 -7 C-257.97519531 -7.75796875 -256.95039063 -8.5159375 -255.89453125 -9.296875 C-252.64873875 -11.61706127 -249.3543023 -13.84129945 -246 -16 C-245.34531738 -16.42249023 -244.69063477 -16.84498047 -244.01611328 -17.28027344 C-169.05870916 -64.8651036 -67.83853727 -56.14969126 0 0 Z M-95.53027344 47.23144531 C-96.44850891 47.46885941 -97.36674438 47.7062735 -98.31280518 47.95088196 C-101.33088152 48.73384403 -104.34508774 49.5307111 -107.359375 50.328125 C-109.47134523 50.87978439 -111.58351089 51.4306961 -113.69586182 51.980896 C-118.11882216 53.13508628 -122.54002368 54.29571327 -126.95996094 55.46142578 C-132.59698804 56.94797714 -138.23706556 58.42251511 -143.87838364 59.89268875 C-148.24099686 61.03032731 -152.60244314 62.17238477 -156.96350861 63.31594086 C-159.04109074 63.86057589 -161.11890142 64.40433991 -163.19695282 64.9471817 C-188.20910007 70.288926 -188.20910007 70.288926 -206.08984375 87.10546875 C-208.91233884 92.98061948 -209.03550177 100.25444216 -207.31640625 106.47265625 C-203.93254601 114.65850903 -198.9542099 120.17019523 -191 124 C-179.72214218 127.39923762 -168.25396177 123.39255796 -157.3125 120.5 C-155.62856721 120.06519613 -153.94432401 119.63159255 -152.25976562 119.19921875 C-148.16946739 118.14661513 -144.08371129 117.0778628 -140 116 C-143.13404074 122.38560802 -146.26424372 128.69445959 -150 134.75 C-150.7827274 136.03295397 -151.56386427 137.31687914 -152.34375 138.6015625 C-152.7665625 139.29797852 -153.189375 139.99439453 -153.625 140.71191406 C-156.2956765 145.15608668 -158.89324651 149.64314259 -161.5 154.125 C-166.40272217 162.54676787 -171.31583913 170.96229571 -176.24560547 179.36825562 C-177.31499195 181.19174921 -178.38408227 183.01541619 -179.453125 184.83911133 C-182.76753693 190.49247602 -186.08420044 196.14450112 -189.40617371 201.79342651 C-199.03147433 218.13249154 -199.03147433 218.13249154 -208.5 234.5625 C-208.85578125 235.1810083 -209.2115625 235.7995166 -209.578125 236.43676758 C-213.39916018 243.22047527 -214.23023707 250.01235212 -212.3515625 257.62890625 C-209.57821437 265.39191062 -205.12385351 270.56274863 -197.8125 274.375 C-189.53233063 278.25369441 -182.38346877 277.41389948 -173.90625 274.65625 C-165.30798624 269.7561642 -160.70102199 261.75818946 -156.0625 253.3125 C-155.09026358 251.58520398 -154.11797864 249.85793404 -153.14350891 248.13189697 C-152.46571887 246.93011589 -151.78953802 245.72742591 -151.11491394 244.52386475 C-147.66377848 238.37041303 -144.0972061 232.28673609 -140.51681519 226.20785522 C-138.71509201 223.14823206 -136.91836861 220.08567504 -135.12109375 217.0234375 C-134.77089676 216.42703964 -134.42069977 215.83064178 -134.05989075 215.21617126 C-130.69492289 209.48424052 -127.34611185 203.74295157 -124 198 C-117.65930555 187.11942005 -111.29279844 176.25407454 -104.91928101 165.3927002 C-103.92700434 163.70060547 -102.93638805 162.00753741 -101.94580078 160.31445312 C-100.61823403 158.05309225 -99.28449922 155.79667706 -97.94091797 153.54492188 C-97.29912598 152.46275391 -96.65733398 151.38058594 -95.99609375 150.265625 C-95.1306897 148.81591309 -95.1306897 148.81591309 -94.24780273 147.33691406 C-92.84299537 145.14748883 -92.84299537 145.14748883 -93 143 C-92.34 143 -91.68 143 -91 143 C-90.89913086 143.62366455 -90.79826172 144.2473291 -90.69433594 144.88989258 C-89.31781904 152.946608 -87.37332869 160.79795617 -85.25 168.6875 C-84.92773438 169.95400391 -84.60546875 171.22050781 -84.2734375 172.52539062 C-81.72703663 181.96582642 -78.38938665 189.47528196 -70 195 C-61.87494975 199.06252512 -55.6768833 199.54257583 -47.00390625 197.1328125 C-39.35580401 194.24861269 -34.59894921 189.37436758 -30.875 182.2109375 C-27.83210543 174.52219498 -28.71969855 166.85139731 -30.81665039 159.05297852 C-31.01023132 158.30192841 -31.20381226 157.5508783 -31.40325928 156.77706909 C-32.04207091 154.30848299 -32.69466738 151.84377657 -33.34765625 149.37890625 C-33.80249699 147.63439535 -34.25653768 145.88967568 -34.70982361 144.14476013 C-35.66324031 140.48255873 -36.62288738 136.82207132 -37.58764648 133.1628418 C-38.80369668 128.5504869 -40.00966699 123.93558259 -41.21164894 119.31954384 C-43.91032378 108.95599843 -46.64240738 98.60166331 -49.40042877 88.25376129 C-49.9683096 86.11912277 -50.53291134 83.98364758 -51.09637451 81.84783936 C-52.03020176 78.32099565 -52.97855649 74.79849301 -53.93359375 71.27734375 C-54.32104515 69.80352989 -54.32104515 69.80352989 -54.71632385 68.29994202 C-57.17402418 59.38743053 -61.34725452 53.36369418 -69 48 C-77.90661116 43.58555398 -86.27076531 44.7535001 -95.53027344 47.23144531 Z " fill="#FFB000" transform="translate(384,89)"/>
</svg>
